<svg width="59" height="33" viewBox="0 0 59 33" fill="none" xmlns="http://www.w3.org/2000/svg">
<mask id="mask0_201_2250" style="mask-type:luminance" maskUnits="userSpaceOnUse" x="23" y="2" width="13" height="14">
<path d="M23.0674 2.59424H35.9327V15.3593H23.0674V2.59424Z" fill="white"/>
</mask>
<g mask="url(#mask0_201_2250)">
<path d="M35.4719 6.68299C34.5502 4.29679 32.2244 2.60303 29.4997 2.60303C29.0189 2.60303 28.5508 2.65602 28.1006 2.75581C25.2423 3.38983 23.1034 5.92658 23.1034 8.96224C23.1034 12.4688 25.9633 15.321 29.4997 15.321C32.9508 15.321 35.7507 12.6062 35.8888 9.22594C35.8933 9.13873 35.8949 9.05057 35.8949 8.96224C35.8949 8.18212 35.7529 7.41139 35.4719 6.68299Z" fill="#26E5DF"/>
</g>
<mask id="mask1_201_2250" style="mask-type:luminance" maskUnits="userSpaceOnUse" x="28" y="2" width="8" height="8">
<path d="M28.0659 2.59424H35.9326V9.41115H28.0659V2.59424Z" fill="white"/>
</mask>
<g mask="url(#mask1_201_2250)">
<path d="M35.4718 6.68299C34.55 4.29679 32.2242 2.60303 29.4996 2.60303C29.0188 2.60303 28.5507 2.65602 28.1004 2.75581C28.096 2.84349 28.0944 2.93166 28.0944 3.01998C28.0944 6.52639 30.9543 9.37856 34.4907 9.37856C34.9715 9.37856 35.439 9.3262 35.8887 9.22594C35.8932 9.13873 35.8948 9.05057 35.8948 8.96224C35.8948 8.18212 35.7528 7.41139 35.4718 6.68299Z" fill="#26E5DF"/>
</g>
<path d="M42.4577 12.6743V29.9772H16.5406V12.6743H24.3068C25.4675 14.2777 27.3618 15.3207 29.4997 15.3207C31.6404 15.3207 33.532 14.2759 34.6915 12.6743H42.4577Z" fill="#E9F5FF"/>
<path d="M42.4577 27.4089V29.9772H16.5406V12.6743H20.3277V23.6216C20.3277 25.7134 22.0333 27.4089 24.1372 27.4089H42.4577Z" fill="#D6E4ED"/>
<path d="M39.7196 26.8897H30.0003C29.3457 26.8897 28.8152 26.3622 28.8152 25.7114V15.1664C28.8152 14.5157 29.3457 13.9883 30.0003 13.9883H39.7196C40.3742 13.9883 40.9047 14.5157 40.9047 15.1664V25.7114C40.9047 26.3622 40.3742 26.8897 39.7196 26.8897Z" fill="#FAFCFF"/>
<path d="M25.5413 19.7866H33.5608V29.9772H25.5413V19.7866Z" fill="#80B6FC"/>
<path d="M26.5118 27.6445V19.7866H25.5413V29.9772H33.5608V28.4197H27.2914C26.8609 28.4197 26.5118 28.0726 26.5118 27.6445Z" fill="#69A6E8"/>
<path d="M34.2129 18.1052V19.4102C34.2129 19.6182 34.0432 19.7869 33.8341 19.7869H25.1641C24.9549 19.7869 24.7853 19.6182 24.7853 19.4102V18.1052C24.7853 17.897 24.9549 17.7285 25.1641 17.7285H33.8341C34.0432 17.7285 34.2129 17.897 34.2129 18.1052Z" fill="#6B90DB"/>
<path d="M24.3061 12.6745H16.5408C16.0866 12.6745 15.7181 12.3084 15.7181 11.8567V7.50094C15.7181 7.04929 16.0866 6.68311 16.5408 6.68311H23.5264C23.2686 7.35135 23.1205 8.07354 23.105 8.82836C23.1039 8.87308 23.1034 8.91764 23.1034 8.96236C23.1034 9.50313 23.1709 10.0281 23.2991 10.5293C23.4987 11.3121 23.8442 12.0378 24.3061 12.6745ZM42.4575 6.68311H35.4719C35.7297 7.35135 35.8778 8.07354 35.8933 8.82836C35.8944 8.87308 35.8949 8.91764 35.8949 8.96236C35.8949 9.50313 35.8273 10.0281 35.6991 10.5293C35.4996 11.3121 35.154 12.0378 34.6921 12.6745H42.4575C42.9117 12.6745 43.2801 12.3084 43.2801 11.8567V7.50094C43.2801 7.04929 42.9117 6.68311 42.4575 6.68311Z" fill="#6B90DB"/>
<path d="M39.6009 19.566H36.694C36.2621 19.566 35.9123 19.2181 35.9123 18.7889V15.2708C35.9123 14.8415 36.2621 14.4937 36.694 14.4937H39.6009C40.0326 14.4937 40.3826 14.8415 40.3826 15.2708V18.7889C40.3826 19.2181 40.0326 19.566 39.6009 19.566ZM23.0859 18.7889V15.2708C23.0859 14.8415 22.736 14.4937 22.3042 14.4937H19.3973C18.9656 14.4937 18.6156 14.8415 18.6156 15.2708V18.7889C18.6156 19.2181 18.9656 19.566 19.3973 19.566H22.3042C22.736 19.566 23.0859 19.2181 23.0859 18.7889ZM40.3826 25.497V21.9788C40.3826 21.5496 40.0326 21.2017 39.6009 21.2017H36.694C36.2621 21.2017 35.9123 21.5496 35.9123 21.9788V25.497C35.9123 25.926 36.2621 26.2741 36.694 26.2741H39.6009C40.0326 26.2741 40.3826 25.926 40.3826 25.497ZM23.0859 25.497V21.9788C23.0859 21.5496 22.736 21.2017 22.3042 21.2017H19.3973C18.9656 21.2017 18.6156 21.5496 18.6156 21.9788V25.497C18.6156 25.926 18.9656 26.2741 19.3973 26.2741H22.3042C22.736 26.2741 23.0859 25.926 23.0859 25.497Z" fill="#80B6FC"/>
<path d="M40.3825 24.7527V25.497C40.3825 25.9259 40.0326 26.2738 39.6011 26.2738H36.694C36.2621 26.2738 35.9122 25.9259 35.9122 25.497V21.9788C35.9122 21.5499 36.2621 21.2014 36.694 21.2014H37.5759V23.9757C37.5759 24.4048 37.9258 24.7527 38.3577 24.7527H40.3825ZM21.0609 24.7527C20.6294 24.7527 20.2795 24.4048 20.2795 23.9757V21.2014H19.3972C18.9657 21.2014 18.6158 21.5499 18.6158 21.9788V25.497C18.6158 25.9259 18.9657 26.2738 19.3972 26.2738H22.3043C22.7363 26.2738 23.0861 25.9259 23.0861 25.497V24.7527H21.0609ZM38.3577 18.0448C37.9258 18.0448 37.5759 17.6969 37.5759 17.268V14.4937H36.694C36.2621 14.4937 35.9122 14.842 35.9122 15.2711V18.7891C35.9122 19.2181 36.2621 19.566 36.694 19.566H39.6011C40.0326 19.566 40.3825 19.2181 40.3825 18.7891V18.0448H38.3577ZM21.0609 18.0448C20.6294 18.0448 20.2795 17.6969 20.2795 17.268V14.4937H19.3972C18.9657 14.4937 18.6158 14.842 18.6158 15.2711V18.7891C18.6158 19.2181 18.9657 19.566 19.3972 19.566H22.3043C22.7363 19.566 23.0861 19.2181 23.0861 18.7891V18.0448H21.0609Z" fill="#69A6E8"/>
<mask id="mask2_201_2250" style="mask-type:luminance" maskUnits="userSpaceOnUse" x="15" y="29" width="29" height="2">
<path d="M15.3021 29.5371H43.6959V30.3927H15.3021V29.5371Z" fill="white"/>
</mask>
<g mask="url(#mask2_201_2250)">
<path d="M43.2801 30.391H15.7181C15.4884 30.391 15.3021 30.2059 15.3021 29.9776C15.3021 29.749 15.4884 29.564 15.7181 29.564H43.2801C43.5097 29.564 43.6959 29.749 43.6959 29.9776C43.6959 30.2059 43.5097 30.391 43.2801 30.391Z" fill="#6B90DB"/>
</g>
<path d="M24.3061 12.6747H16.5406C16.0864 12.6747 15.7181 12.3085 15.7181 11.857V7.50078C15.7181 7.04929 16.0864 6.68311 16.5406 6.68311H17.6592V7.9814C17.6592 9.63983 19.0114 10.9843 20.6795 10.9843H23.4339C23.6391 11.594 23.9352 12.1631 24.3061 12.6747ZM39.2743 10.9843C38.1592 10.9843 37.356 9.936 37.6341 8.86242C37.6362 8.85462 37.6381 8.84682 37.6402 8.83886C37.7682 8.33772 37.8359 7.81287 37.8359 7.27194C37.8359 7.22738 37.8353 7.18266 37.8342 7.1381C37.831 6.98468 37.8227 6.83318 37.8083 6.68311H35.4719C35.7297 7.35135 35.8778 8.0737 35.8933 8.82852C35.8944 8.87308 35.8949 8.9178 35.8949 8.96236C35.8949 9.50329 35.8273 10.0281 35.6991 10.5293C35.4996 11.3123 35.154 12.0378 34.6921 12.6747H42.4576C42.9119 12.6747 43.2801 12.3085 43.2801 11.8564V10.9843H39.2743Z" fill="#4976BF"/>
<path d="M35.4087 11.3965C34.4487 13.6968 32.1693 15.321 29.4997 15.321C25.9633 15.321 23.1034 12.4688 23.1034 8.96228C23.1034 6.77788 24.2108 4.85208 25.8972 3.70752C25.584 4.45677 25.4114 5.27874 25.4114 6.14114C25.4114 9.64771 28.2709 12.4997 31.8078 12.4997C33.1448 12.4997 34.3837 12.0923 35.4087 11.3965Z" fill="#09C3BE"/>
<path d="M23.2991 10.5291H15.7181V8.82812H23.105C23.1039 8.87284 23.1034 8.9174 23.1034 8.96212C23.1034 9.50289 23.1709 10.0279 23.2991 10.5291ZM35.8933 8.82812C35.8944 8.87284 35.8949 8.9174 35.8949 8.96212C35.8949 9.50289 35.8273 10.0279 35.6991 10.5291H43.2801V8.82812H35.8933Z" fill="#E9F5FF"/>
<path d="M32.392 26.8897H31.2645C31.0705 26.8897 30.9132 26.7334 30.9132 26.5405V21.6748C30.9132 21.482 31.0705 21.3257 31.2645 21.3257H32.392C32.586 21.3257 32.7434 21.482 32.7434 21.6748V26.5405C32.7434 26.7334 32.586 26.8897 32.392 26.8897Z" fill="#9AC9FC"/>
<path d="M28.9047 26.8897H27.777C27.5831 26.8897 27.4259 26.7334 27.4259 26.5405V21.6748C27.4259 21.482 27.5831 21.3257 27.777 21.3257H28.9047C29.0987 21.3257 29.2559 21.482 29.2559 21.6748V26.5405C29.2559 26.7334 29.0987 26.8897 28.9047 26.8897Z" fill="#9AC9FC"/>
<path d="M29.0833 19.7866H29.915V29.9772H29.0833V19.7866Z" fill="#E9F5FF"/>
<path d="M30.5506 12.4782C29.9885 12.0132 30.3189 11.5732 29.9968 10.4233C29.8574 9.92522 29.1441 9.92522 29.0045 10.4233C28.6825 11.5732 29.0129 12.0132 28.4513 12.4782C27.6368 13.1517 26.5422 11.4431 26.0481 9.54153C25.6607 8.04765 25.6435 6.43457 26.4244 5.76314C26.9294 5.32932 27.6256 5.18768 28.2675 5.3691L28.7774 5.51313C29.0764 5.59795 29.3871 5.62898 29.6945 5.60654C29.8728 5.59334 30.0508 5.56214 30.2244 5.51313L30.734 5.3691C31.3763 5.18768 32.072 5.32932 32.577 5.76314C34.3353 7.27373 32.0328 13.7044 30.5506 12.4782Z" fill="#E9F5FF"/>
<path d="M39.3497 23.9262C39.139 23.9262 38.9683 23.7565 38.9683 23.5473V22.1965C38.9683 21.987 39.139 21.8174 39.3497 21.8174C39.5601 21.8174 39.7309 21.987 39.7309 22.1965V23.5473C39.7309 23.7565 39.5601 23.9262 39.3497 23.9262Z" fill="#9AC9FC"/>
<path d="M39.2802 17.2275C39.0697 17.2275 38.8989 17.0578 38.8989 16.8484V15.4976C38.8989 15.2883 39.0697 15.1187 39.2802 15.1187C39.4908 15.1187 39.6616 15.2883 39.6616 15.4976V16.8484C39.6616 17.0578 39.4908 17.2275 39.2802 17.2275Z" fill="#9AC9FC"/>
<path d="M21.8622 23.9262C21.6516 23.9262 21.481 23.7565 21.481 23.5473V22.1965C21.481 21.987 21.6516 21.8174 21.8622 21.8174C22.0727 21.8174 22.2434 21.987 22.2434 22.1965V23.5473C22.2434 23.7565 22.0727 23.9262 21.8622 23.9262Z" fill="#9AC9FC"/>
<path d="M21.7929 17.2275C21.5823 17.2275 21.4115 17.0578 21.4115 16.8484V15.4976C21.4115 15.2883 21.5823 15.1187 21.7929 15.1187C22.0034 15.1187 22.1741 15.2883 22.1741 15.4976V16.8484C22.1741 17.0578 22.0034 17.2275 21.7929 17.2275Z" fill="#9AC9FC"/>
</svg>
