<svg width="98" height="59" viewBox="0 0 98 59" fill="none" xmlns="http://www.w3.org/2000/svg">
<g clip-path="url(#clip0_201_2426)" filter="url(#filter0_d_201_2426)">
<mask id="mask0_201_2426" style="mask-type:luminance" maskUnits="userSpaceOnUse" x="38" y="4" width="22" height="22">
<path d="M38.3153 4.32373H59.6848V25.5988H38.3153V4.32373Z" fill="white"/>
</mask>
<g mask="url(#mask0_201_2426)">
<path d="M58.9194 11.1383C57.3884 7.16132 53.5252 4.33838 48.9995 4.33838C48.2009 4.33838 47.4233 4.4267 46.6755 4.59301C41.9278 5.64972 38.3751 9.87763 38.3751 14.9371C38.3751 20.7814 43.1255 25.535 48.9995 25.535C54.7319 25.535 59.3825 21.0103 59.6119 15.3766C59.6194 15.2312 59.622 15.0843 59.622 14.9371C59.622 13.6369 59.3862 12.3523 58.9194 11.1383Z" fill="#DA0B62"/>
</g>
<mask id="mask1_201_2426" style="mask-type:luminance" maskUnits="userSpaceOnUse" x="46" y="4" width="14" height="12">
<path d="M46.618 4.32373H59.6847V15.6853H46.618V4.32373Z" fill="white"/>
</mask>
<g mask="url(#mask1_201_2426)">
<path d="M58.9194 11.1383C57.3884 7.16132 53.5252 4.33838 48.9995 4.33838C48.2009 4.33838 47.4233 4.4267 46.6755 4.59301C46.6681 4.73916 46.6654 4.8861 46.6654 5.03331C46.6654 10.8773 51.4157 15.6309 57.2898 15.6309C58.0884 15.6309 58.8649 15.5437 59.6119 15.3766C59.6194 15.2312 59.622 15.0843 59.622 14.9371C59.622 13.6369 59.3862 12.3523 58.9194 11.1383Z" fill="#EA1576"/>
</g>
<path d="M70.5228 21.124V49.9622H27.4742V21.124H40.374C42.3018 23.7963 45.4484 25.5347 48.9995 25.5347C52.5551 25.5347 55.6971 23.7934 57.6231 21.124H70.5228Z" fill="#E9F5FF"/>
<path d="M70.5228 45.6817V49.9622H27.4742V21.124H33.7646V39.3696C33.7646 42.8559 36.5977 45.6817 40.0922 45.6817H70.5228Z" fill="#D6E4ED"/>
<path d="M65.9748 44.8164H49.831C48.7437 44.8164 47.8624 43.9371 47.8624 42.8525V25.2775C47.8624 24.193 48.7437 23.314 49.831 23.314H65.9748C67.0621 23.314 67.9433 24.193 67.9433 25.2775V42.8525C67.9433 43.9371 67.0621 44.8164 65.9748 44.8164Z" fill="#FAFCFF"/>
<path d="M42.4244 32.978H55.745V49.9624H42.4244V32.978Z" fill="#80B6FC"/>
<path d="M44.0365 46.0745V32.978H42.4244V49.9624H55.745V47.3665H45.3314C44.6163 47.3665 44.0365 46.788 44.0365 46.0745Z" fill="#69A6E8"/>
<path d="M56.8282 30.1752V32.3501C56.8282 32.6968 56.5465 32.978 56.199 32.978H41.7981C41.4506 32.978 41.1688 32.6968 41.1688 32.3501V30.1752C41.1688 29.8283 41.4506 29.5474 41.7981 29.5474H56.199C56.5465 29.5474 56.8282 29.8283 56.8282 30.1752Z" fill="#6B90DB"/>
<path d="M40.3729 21.1239H27.4745C26.72 21.1239 26.108 20.5136 26.108 19.7608V12.5012C26.108 11.7485 26.72 11.1382 27.4745 11.1382H39.0777C38.6494 12.2519 38.4035 13.4556 38.3777 14.7136C38.3758 14.7881 38.375 14.8624 38.375 14.9369C38.375 15.8382 38.4872 16.7132 38.7002 17.5485C39.0317 18.8532 39.6056 20.0627 40.3729 21.1239ZM70.5225 11.1382H58.9193C59.3476 12.2519 59.5935 13.4556 59.6193 14.7136C59.6211 14.7881 59.6219 14.8624 59.6219 14.9369C59.6219 15.8382 59.5098 16.7132 59.2968 17.5485C58.9653 18.8532 58.3914 20.0627 57.6241 21.1239H70.5225C71.277 21.1239 71.889 20.5136 71.889 19.7608V12.5012C71.889 11.7485 71.277 11.1382 70.5225 11.1382Z" fill="#6B90DB"/>
<path d="M65.7778 32.6102H60.9493C60.2321 32.6102 59.651 32.0304 59.651 31.3151V25.4514C59.651 24.7361 60.2321 24.1562 60.9493 24.1562H65.7778C66.4948 24.1562 67.0762 24.7361 67.0762 25.4514V31.3151C67.0762 32.0304 66.4948 32.6102 65.7778 32.6102ZM38.3461 31.3151V25.4514C38.3461 24.7361 37.765 24.1562 37.0478 24.1562H32.2193C31.5023 24.1562 30.9209 24.7361 30.9209 25.4514V31.3151C30.9209 32.0304 31.5023 32.6102 32.2193 32.6102H37.0478C37.765 32.6102 38.3461 32.0304 38.3461 31.3151ZM67.0762 42.4951V36.6315C67.0762 35.9162 66.4948 35.3363 65.7778 35.3363H60.9493C60.2321 35.3363 59.651 35.9162 59.651 36.6315V42.4951C59.651 43.2102 60.2321 43.7903 60.9493 43.7903H65.7778C66.4948 43.7903 67.0762 43.2102 67.0762 42.4951ZM38.3461 42.4951V36.6315C38.3461 35.9162 37.765 35.3363 37.0478 35.3363H32.2193C31.5023 35.3363 30.9209 35.9162 30.9209 36.6315V42.4951C30.9209 43.2102 31.5023 43.7903 32.2193 43.7903H37.0478C37.765 43.7903 38.3461 43.2102 38.3461 42.4951Z" fill="#80B6FC"/>
<path d="M67.0759 41.2546V42.4952C67.0759 43.21 66.4948 43.7898 65.7781 43.7898H60.9493C60.2318 43.7898 59.6507 43.21 59.6507 42.4952V36.6315C59.6507 35.9167 60.2318 35.3358 60.9493 35.3358H62.4141V39.9597C62.4141 40.6748 62.9952 41.2546 63.7128 41.2546H67.0759ZM34.9824 41.2546C34.2657 41.2546 33.6846 40.6748 33.6846 39.9597V35.3358H32.219C31.5023 35.3358 30.9211 35.9167 30.9211 36.6315V42.4952C30.9211 43.21 31.5023 43.7898 32.219 43.7898H37.0477C37.7652 43.7898 38.3464 43.21 38.3464 42.4952V41.2546H34.9824ZM63.7128 30.0748C62.9952 30.0748 62.4141 29.495 62.4141 28.7802V24.1562H60.9493C60.2318 24.1562 59.6507 24.7369 59.6507 25.4519V31.3153C59.6507 32.0304 60.2318 32.6102 60.9493 32.6102H65.7781C66.4948 32.6102 67.0759 32.0304 67.0759 31.3153V30.0748H63.7128ZM34.9824 30.0748C34.2657 30.0748 33.6846 29.495 33.6846 28.7802V24.1562H32.219C31.5023 24.1562 30.9211 24.7369 30.9211 25.4519V31.3153C30.9211 32.0304 31.5023 32.6102 32.219 32.6102H37.0477C37.7652 32.6102 38.3464 32.0304 38.3464 31.3153V30.0748H34.9824Z" fill="#69A6E8"/>
<g filter="url(#filter1_d_201_2426)">
<mask id="mask2_201_2426" style="mask-type:luminance" maskUnits="userSpaceOnUse" x="25" y="49" width="48" height="2">
<path d="M25.4171 49.2285H72.5796V50.6544H25.4171V49.2285Z" fill="white"/>
</mask>
<g mask="url(#mask2_201_2426)">
<path d="M71.889 50.6519H26.108C25.7266 50.6519 25.4171 50.3434 25.4171 49.9628C25.4171 49.5819 25.7266 49.2734 26.108 49.2734H71.889C72.2704 49.2734 72.5796 49.5819 72.5796 49.9628C72.5796 50.3434 72.2704 50.6519 71.889 50.6519Z" fill="#6B90DB"/>
</g>
</g>
<path d="M40.3729 21.1242H27.4742C26.7197 21.1242 26.108 20.5139 26.108 19.7614V12.501C26.108 11.7485 26.7197 11.1382 27.4742 11.1382H29.3322V13.302C29.3322 16.0661 31.5783 18.3068 34.3489 18.3068H38.924C39.2648 19.3229 39.7566 20.2714 40.3729 21.1242ZM65.2352 18.3068C63.3831 18.3068 62.0488 16.5597 62.5108 14.7704C62.5143 14.7574 62.5175 14.7444 62.5209 14.7311C62.7336 13.8959 62.8461 13.0211 62.8461 12.1196C62.8461 12.0453 62.845 11.9708 62.8431 11.8965C62.8378 11.6408 62.824 11.3883 62.8001 11.1382H58.9193C59.3476 12.2519 59.5935 13.4558 59.6193 14.7139C59.6211 14.7881 59.6219 14.8627 59.6219 14.9369C59.6219 15.8385 59.5098 16.7132 59.2968 17.5485C58.9653 18.8535 58.3914 20.0627 57.6241 21.1242H70.5228C71.2773 21.1242 71.889 20.5139 71.889 19.7603V18.3068H65.2352Z" fill="#4976BF"/>
<path d="M58.8144 18.9942C57.2199 22.828 53.4337 25.535 48.9995 25.535C43.1255 25.535 38.3751 20.7814 38.3751 14.9371C38.3751 11.2965 40.2145 8.0868 43.0157 6.1792C42.4954 7.42795 42.2088 8.79791 42.2088 10.2352C42.2088 16.0795 46.9584 20.8329 52.8332 20.8329C55.0541 20.8329 57.1119 20.1539 58.8144 18.9942Z" fill="#C6095F"/>
<path d="M38.7002 17.5483H26.108V14.7134H38.3777C38.3758 14.7879 38.375 14.8622 38.375 14.9367C38.375 15.838 38.4872 16.713 38.7002 17.5483ZM59.6193 14.7134C59.6211 14.7879 59.6219 14.8622 59.6219 14.9367C59.6219 15.838 59.5098 16.713 59.2968 17.5483H71.889V14.7134H59.6193Z" fill="#E9F5FF"/>
<path d="M53.8038 44.8163H51.9309C51.6087 44.8163 51.3474 44.5558 51.3474 44.2343V36.1249C51.3474 35.8034 51.6087 35.543 51.9309 35.543H53.8038C54.126 35.543 54.3873 35.8034 54.3873 36.1249V44.2343C54.3873 44.5558 54.126 44.8163 53.8038 44.8163Z" fill="#9AC9FC"/>
<path d="M48.0113 44.8163H46.1382C45.816 44.8163 45.5549 44.5558 45.5549 44.2343V36.1249C45.5549 35.8034 45.816 35.543 46.1382 35.543H48.0113C48.3335 35.543 48.5946 35.8034 48.5946 36.1249V44.2343C48.5946 44.5558 48.3335 44.8163 48.0113 44.8163Z" fill="#9AC9FC"/>
<path d="M48.3077 32.978H49.6893V49.9624H48.3077V32.978Z" fill="#E9F5FF"/>
<path d="M50.7449 20.7968C49.8113 20.0218 50.36 19.2884 49.8251 17.3721C49.5936 16.5419 48.4087 16.5419 48.1769 17.3721C47.642 19.2884 48.1907 20.0218 47.2579 20.7968C45.905 21.9193 44.0869 19.0717 43.2663 15.9024C42.6227 13.4126 42.5942 10.7241 43.8913 9.60507C44.73 8.88203 45.8864 8.64597 46.9527 8.94834L47.7997 9.18838C48.2963 9.32975 48.8123 9.38148 49.3229 9.34408C49.6191 9.32206 49.9147 9.27008 50.2032 9.18838L51.0496 8.94834C52.1164 8.64597 53.272 8.88203 54.1108 9.60507C57.0313 12.1227 53.2069 22.8405 50.7449 20.7968Z" fill="#E9F5FF"/>
<path d="M65.3604 39.877C65.0106 39.877 64.7269 39.5942 64.7269 39.2455V36.9941C64.7269 36.645 65.0106 36.3623 65.3604 36.3623C65.71 36.3623 65.9937 36.645 65.9937 36.9941V39.2455C65.9937 39.5942 65.71 39.877 65.3604 39.877Z" fill="#9AC9FC"/>
<path d="M65.2451 28.7124C64.8955 28.7124 64.6118 28.4297 64.6118 28.0806V25.8293C64.6118 25.4805 64.8955 25.1978 65.2451 25.1978C65.5949 25.1978 65.8786 25.4805 65.8786 25.8293V28.0806C65.8786 28.4297 65.5949 28.7124 65.2451 28.7124Z" fill="#9AC9FC"/>
<path d="M36.3135 39.877C35.9637 39.877 35.6803 39.5942 35.6803 39.2455V36.9941C35.6803 36.645 35.9637 36.3623 36.3135 36.3623C36.6631 36.3623 36.9468 36.645 36.9468 36.9941V39.2455C36.9468 39.5942 36.6631 39.877 36.3135 39.877Z" fill="#9AC9FC"/>
<path d="M36.1983 28.7124C35.8485 28.7124 35.5648 28.4297 35.5648 28.0806V25.8293C35.5648 25.4805 35.8485 25.1978 36.1983 25.1978C36.5479 25.1978 36.8316 25.4805 36.8316 25.8293V28.0806C36.8316 28.4297 36.5479 28.7124 36.1983 28.7124Z" fill="#9AC9FC"/>
</g>
<defs>
<filter id="filter0_d_201_2426" x="-4" y="0" width="106" height="63" filterUnits="userSpaceOnUse" color-interpolation-filters="sRGB">
<feFlood flood-opacity="0" result="BackgroundImageFix"/>
<feColorMatrix in="SourceAlpha" type="matrix" values="0 0 0 0 0 0 0 0 0 0 0 0 0 0 0 0 0 0 127 0" result="hardAlpha"/>
<feOffset dy="4"/>
<feGaussianBlur stdDeviation="2"/>
<feComposite in2="hardAlpha" operator="out"/>
<feColorMatrix type="matrix" values="0 0 0 0 0 0 0 0 0 0 0 0 0 0 0 0 0 0 0.25 0"/>
<feBlend mode="normal" in2="BackgroundImageFix" result="effect1_dropShadow_201_2426"/>
<feBlend mode="normal" in="SourceGraphic" in2="effect1_dropShadow_201_2426" result="shape"/>
</filter>
<filter id="filter1_d_201_2426" x="25.4171" y="49.2734" width="55.1625" height="9.37842" filterUnits="userSpaceOnUse" color-interpolation-filters="sRGB">
<feFlood flood-opacity="0" result="BackgroundImageFix"/>
<feColorMatrix in="SourceAlpha" type="matrix" values="0 0 0 0 0 0 0 0 0 0 0 0 0 0 0 0 0 0 127 0" result="hardAlpha"/>
<feOffset dx="4" dy="4"/>
<feGaussianBlur stdDeviation="2"/>
<feComposite in2="hardAlpha" operator="out"/>
<feColorMatrix type="matrix" values="0 0 0 0 0 0 0 0 0 0 0 0 0 0 0 0 0 0 0.25 0"/>
<feBlend mode="normal" in2="BackgroundImageFix" result="effect1_dropShadow_201_2426"/>
<feBlend mode="normal" in="SourceGraphic" in2="effect1_dropShadow_201_2426" result="shape"/>
</filter>
<clipPath id="clip0_201_2426">
<rect width="98" height="55" fill="white"/>
</clipPath>
</defs>
</svg>
