<svg width="32" height="32" viewBox="0 0 32 32" fill="none" xmlns="http://www.w3.org/2000/svg">
<path d="M1.94377 21.3553C2.36536 21.3553 2.77226 21.5098 3.08731 21.7893C3.40236 22.0688 3.60363 22.454 3.65296 22.8718L3.665 23.0727V28.225H10.5499C10.9887 28.2255 11.4106 28.3931 11.7296 28.6936C12.0486 28.9941 12.2406 29.4048 12.2663 29.8418C12.292 30.2788 12.1495 30.7091 11.868 31.0447C11.5864 31.3804 11.187 31.5961 10.7513 31.6478L10.5499 31.6599H3.665C2.79651 31.6601 1.96001 31.3329 1.32318 30.7436C0.686356 30.1544 0.296278 29.3467 0.231141 28.4826L0.222534 28.225V23.0727C0.222534 22.6172 0.403878 22.1804 0.726672 21.8583C1.04947 21.5362 1.48727 21.3553 1.94377 21.3553ZM29.4835 21.3553C29.94 21.3553 30.3778 21.5362 30.7006 21.8583C31.0234 22.1804 31.2048 22.6172 31.2048 23.0727V28.225C31.2048 29.136 30.8421 30.0097 30.1965 30.6538C29.5509 31.298 28.6753 31.6599 27.7623 31.6599H20.8774C20.4209 31.6599 19.9831 31.4789 19.6603 31.1568C19.3375 30.8348 19.1561 30.3979 19.1561 29.9424C19.1561 29.4869 19.3375 29.0501 19.6603 28.728C19.9831 28.4059 20.4209 28.225 20.8774 28.225H27.7623V23.0727C27.7623 22.6172 27.9436 22.1804 28.2664 21.8583C28.5892 21.5362 29.027 21.3553 29.4835 21.3553ZM29.4835 14.4855C29.9222 14.486 30.3442 14.6536 30.6632 14.9541C30.9822 15.2546 31.1742 15.6653 31.1999 16.1023C31.2256 16.5393 31.0831 16.9696 30.8015 17.3053C30.52 17.641 30.1206 17.8567 29.6849 17.9084L29.4835 17.9204H1.94377C1.50506 17.9199 1.0831 17.7523 0.764089 17.4518C0.445082 17.1513 0.253112 16.7406 0.227402 16.3036C0.201691 15.8666 0.344182 15.4364 0.625759 15.1007C0.907336 14.765 1.30675 14.5493 1.74238 14.4976L1.94377 14.4855H29.4835ZM10.5499 0.746094C11.0064 0.746094 11.4442 0.927037 11.767 1.24912C12.0898 1.5712 12.2712 2.00803 12.2712 2.46353C12.2712 2.91902 12.0898 3.35585 11.767 3.67793C11.4442 4.00001 11.0064 4.18096 10.5499 4.18096H3.665V9.33325C3.665 9.78874 3.48366 10.2256 3.16087 10.5477C2.83807 10.8697 2.40027 11.0507 1.94377 11.0507C1.48727 11.0507 1.04947 10.8697 0.726672 10.5477C0.403878 10.2256 0.222534 9.78874 0.222534 9.33325V4.18096C0.222534 3.26997 0.585222 2.3963 1.23081 1.75214C1.8764 1.10798 2.752 0.746094 3.665 0.746094H10.5499ZM27.7623 0.746094C28.6753 0.746094 29.5509 1.10798 30.1965 1.75214C30.8421 2.3963 31.2048 3.26997 31.2048 4.18096V9.33325C31.2048 9.78874 31.0234 10.2256 30.7006 10.5477C30.3778 10.8697 29.94 11.0507 29.4835 11.0507C29.027 11.0507 28.5892 10.8697 28.2664 10.5477C27.9436 10.2256 27.7623 9.78874 27.7623 9.33325V4.18096H20.8774C20.4209 4.18096 19.9831 4.00001 19.6603 3.67793C19.3375 3.35585 19.1561 2.91902 19.1561 2.46353C19.1561 2.00803 19.3375 1.5712 19.6603 1.24912C19.9831 0.927037 20.4209 0.746094 20.8774 0.746094H27.7623Z" fill="url(#paint0_linear_201_585)"/>
<defs>
<linearGradient id="paint0_linear_201_585" x1="-14.3004" y1="-26.4079" x2="27.8625" y2="48.2375" gradientUnits="userSpaceOnUse">
<stop offset="0.311359" stop-color="#007FFF"/>
<stop offset="0.817308" stop-color="#09C3BE"/>
</linearGradient>
</defs>
</svg>
