<svg width="87" height="87" viewBox="0 0 87 87" fill="none" xmlns="http://www.w3.org/2000/svg">
<path d="M58.7778 16C62.1389 16 65.0162 17.1951 67.4097 19.5853C69.8032 21.9755 71 24.8488 71 28.2053C71 28.7647 70.9618 29.5148 70.8854 30.4556C70.809 31.3964 70.6944 32.4771 70.5417 33.6976L66.3403 64.4397C66.0856 66.3722 65.2072 67.9487 63.7049 69.1692C62.2025 70.3897 60.4838 71 58.5486 71C57.3773 71 56.2951 70.7457 55.3021 70.2372C54.309 69.7286 53.4815 69.0166 52.8194 68.1012L44.6458 56.2011C44.544 55.9977 44.3785 55.8578 44.1493 55.7816C43.9201 55.7053 43.6782 55.6671 43.4236 55.6671C43.2199 55.6671 42.8125 55.896 42.2014 56.3537L34.2569 67.8724C33.544 68.8895 32.6655 69.665 31.6215 70.199C30.5775 70.733 29.4699 71 28.2986 71C26.3634 71 24.6574 70.377 23.1806 69.1311C21.7037 67.8851 20.838 66.2959 20.5833 64.3634L16.4583 33.6976C16.3056 32.4771 16.191 31.3964 16.1146 30.4556C16.0382 29.5148 16 28.7647 16 28.2053C16 24.8488 17.1968 21.9755 19.5903 19.5853C21.9838 17.1951 24.8611 16 28.2222 16C30.0556 16 31.5197 16.2416 32.6146 16.7247C33.7095 17.2078 34.7662 17.7291 35.7847 18.2885C36.8032 18.8479 37.8854 19.3692 39.0312 19.8523C40.1771 20.3354 41.6667 20.577 43.5 20.577C45.3333 20.577 46.8229 20.3354 47.9687 19.8523C49.1146 19.3692 50.1968 18.8479 51.2153 18.2885C52.2338 17.7291 53.3032 17.2078 54.4236 16.7247C55.544 16.2416 56.9954 16 58.7778 16ZM58.7778 22.1026C57.6065 22.1026 56.5752 22.3442 55.684 22.8273C54.7928 23.3104 53.8125 23.8317 52.7431 24.3911C51.6736 24.9505 50.4259 25.4718 49 25.9549C47.5741 26.438 45.7407 26.6796 43.5 26.6796C41.2593 26.6796 39.4259 26.438 38 25.9549C36.5741 25.4718 35.3264 24.9505 34.2569 24.3911C33.1875 23.8317 32.2072 23.3104 31.316 22.8273C30.4248 22.3442 29.3935 22.1026 28.2222 22.1026C26.5417 22.1026 25.103 22.7002 23.9062 23.8953C22.7095 25.0904 22.1111 26.527 22.1111 28.2053C22.1111 28.6121 22.1366 29.1969 22.1875 29.9598C22.2384 30.7226 22.3403 31.6126 22.4931 32.6297L26.6944 63.5243C26.7454 63.9311 26.9236 64.249 27.2292 64.4778C27.5347 64.7067 27.8912 64.8211 28.2986 64.8211C28.5532 64.8211 28.7824 64.7702 28.9861 64.6685C29.1898 64.5668 29.3426 64.4142 29.4444 64.2108L37.1597 52.9209C37.8727 51.9038 38.7894 51.0902 39.9097 50.4799C41.0301 49.8696 42.2269 49.5645 43.5 49.5645C44.7731 49.5645 45.9699 49.8696 47.0903 50.4799C48.2106 51.0902 49.1273 51.9038 49.8403 52.9209L57.7083 64.4397C57.8102 64.5922 57.9375 64.7067 58.0903 64.7829C58.2431 64.8592 58.4213 64.8974 58.625 64.8974C59.0324 64.8974 59.4016 64.7829 59.7326 64.5541C60.0637 64.3252 60.2546 64.0074 60.3056 63.6006L64.5069 32.6297C64.6597 31.6126 64.7616 30.7226 64.8125 29.9598C64.8634 29.1969 64.8889 28.6121 64.8889 28.2053C64.8889 26.527 64.2905 25.0904 63.0937 23.8953C61.897 22.7002 60.4583 22.1026 58.7778 22.1026Z" fill="#1FDCD3"/>
<path d="M4.83333 58C6.01718 58.0002 7.1598 58.4348 8.04447 59.2215C8.92913 60.0081 9.49432 61.0921 9.63283 62.2678L9.66667 62.8333V77.3333H29C30.2319 77.3347 31.4168 77.8064 32.3126 78.6521C33.2084 79.4978 33.7475 80.6536 33.8197 81.8834C33.8919 83.1132 33.4917 84.3242 32.7011 85.2689C31.9104 86.2135 30.7888 86.8207 29.5655 86.9662L29 87H9.66667C7.22788 87.0008 4.87893 86.0797 3.09068 84.4214C1.30244 82.7632 0.207076 80.4902 0.0241672 78.0583L0 77.3333V62.8333C0 61.5515 0.509225 60.3221 1.41565 59.4157C2.32208 58.5092 3.55145 58 4.83333 58ZM82.1667 58C83.4485 58 84.6779 58.5092 85.5844 59.4157C86.4908 60.3221 87 61.5515 87 62.8333V77.3333C87 79.8971 85.9816 82.3559 84.1687 84.1687C82.3559 85.9816 79.8971 87 77.3333 87H58C56.7181 87 55.4887 86.4908 54.5823 85.5844C53.6759 84.6779 53.1667 83.4485 53.1667 82.1667C53.1667 80.8848 53.6759 79.6554 54.5823 78.749C55.4887 77.8426 56.7181 77.3333 58 77.3333H77.3333V62.8333C77.3333 61.5515 77.8426 60.3221 78.749 59.4157C79.6554 58.5092 80.8848 58 82.1667 58ZM82.1667 38.6667C83.3986 38.668 84.5835 39.1397 85.4793 39.9854C86.3751 40.8311 86.9141 41.9869 86.9863 43.2167C87.0585 44.4465 86.6584 45.6575 85.8677 46.6022C85.077 47.5469 83.9555 48.154 82.7322 48.2995L82.1667 48.3333H4.83333C3.60142 48.332 2.41651 47.8603 1.52072 47.0146C0.624929 46.1689 0.0858642 45.0131 0.0136681 43.7833C-0.058528 42.5535 0.341594 41.3425 1.13228 40.3978C1.92297 39.4531 3.04454 38.846 4.26783 38.7005L4.83333 38.6667H82.1667ZM29 0C30.2819 0 31.5113 0.509225 32.4177 1.41565C33.3241 2.32208 33.8333 3.55145 33.8333 4.83333C33.8333 6.11521 33.3241 7.34459 32.4177 8.25102C31.5113 9.15744 30.2819 9.66667 29 9.66667H9.66667V24.1667C9.66667 25.4485 9.15744 26.6779 8.25102 27.5843C7.34459 28.4908 6.11521 29 4.83333 29C3.55145 29 2.32208 28.4908 1.41565 27.5843C0.509225 26.6779 0 25.4485 0 24.1667V9.66667C0 7.10291 1.01845 4.64415 2.8313 2.8313C4.64415 1.01845 7.10291 0 9.66667 0H29ZM77.3333 0C79.8971 0 82.3559 1.01845 84.1687 2.8313C85.9816 4.64415 87 7.10291 87 9.66667V24.1667C87 25.4485 86.4908 26.6779 85.5844 27.5843C84.6779 28.4908 83.4485 29 82.1667 29C80.8848 29 79.6554 28.4908 78.749 27.5843C77.8426 26.6779 77.3333 25.4485 77.3333 24.1667V9.66667H58C56.7181 9.66667 55.4887 9.15744 54.5823 8.25102C53.6759 7.34459 53.1667 6.11521 53.1667 4.83333C53.1667 3.55145 53.6759 2.32208 54.5823 1.41565C55.4887 0.509225 56.7181 0 58 0H77.3333Z" fill="#0057B2"/>
</svg>
